<?xml version="1.0" encoding="UTF-8"?>
<svg xmlns="http://www.w3.org/2000/svg" xmlns:xlink="http://www.w3.org/1999/xlink" width="43px" height="24px" viewBox="0 0 42 24" version="1.1">
<g id="surface1">
<path style=" stroke:none;fill-rule:nonzero;fill:rgb(0%,0%,0%);fill-opacity:1;" d="M 17.667969 5.558594 C 18.21875 5.617188 18.757812 5.683594 19.242188 5.976562 C 19.394531 6.070312 19.539062 6.054688 19.699219 5.984375 C 19.898438 5.902344 20.09375 5.796875 20.304688 5.757812 C 20.792969 5.660156 21.21875 5.816406 21.59375 6.140625 C 21.972656 6.460938 22.144531 6.898438 22.269531 7.363281 C 22.28125 7.410156 22.296875 7.460938 22.316406 7.535156 C 22.128906 7.363281 21.960938 7.203125 21.785156 7.050781 C 21.574219 6.863281 21.355469 6.699219 21.074219 6.636719 C 20.796875 6.570312 20.601562 6.667969 20.507812 6.945312 C 20.300781 7.570312 20.257812 8.195312 20.464844 8.839844 C 20.675781 9.484375 20.851562 10.140625 21.003906 10.800781 C 21.089844 11.195312 21.109375 11.605469 21.140625 12.007812 C 21.160156 12.304688 21.171875 12.605469 21.152344 12.90625 C 21.117188 13.488281 21.078125 14.074219 20.992188 14.652344 C 20.894531 15.296875 20.746094 15.933594 20.609375 16.566406 C 20.558594 16.796875 20.46875 17.015625 20.394531 17.238281 C 20.382812 17.273438 20.355469 17.308594 20.339844 17.339844 C 20.324219 17.339844 20.3125 17.335938 20.300781 17.332031 C 20.3125 17.222656 20.308594 17.113281 20.332031 17.003906 C 20.425781 16.539062 20.445312 16.070312 20.453125 15.597656 C 20.460938 15.171875 20.464844 14.746094 20.445312 14.320312 C 20.414062 13.554688 20.390625 12.789062 20.171875 12.042969 C 19.957031 11.328125 19.738281 10.609375 19.410156 9.933594 C 19.375 9.863281 19.332031 9.792969 19.285156 9.726562 C 19.230469 9.640625 19.183594 9.636719 19.128906 9.722656 C 19.015625 9.90625 18.898438 10.09375 18.792969 10.289062 C 18.195312 11.410156 17.640625 12.550781 17.148438 13.726562 C 16.960938 14.179688 16.832031 14.648438 16.824219 15.144531 C 16.816406 15.609375 16.820312 16.074219 16.820312 16.539062 C 16.820312 16.589844 16.808594 16.640625 16.800781 16.691406 C 16.792969 16.695312 16.78125 16.699219 16.773438 16.707031 C 16.679688 16.574219 16.582031 16.441406 16.496094 16.304688 C 15.964844 15.484375 15.445312 14.660156 14.914062 13.839844 C 14.21875 12.757812 13.515625 11.679688 12.816406 10.601562 C 12.628906 10.308594 12.4375 10.015625 12.25 9.722656 C 12.226562 9.6875 12.203125 9.65625 12.175781 9.613281 C 11.960938 9.902344 11.753906 10.1875 11.621094 10.519531 C 11.378906 11.117188 11.25 11.738281 11.15625 12.375 C 11.050781 13.097656 11.007812 13.820312 11.019531 14.546875 C 11.03125 15.304688 11.109375 16.054688 11.273438 16.796875 C 11.300781 16.914062 11.316406 17.035156 11.335938 17.15625 C 11.339844 17.195312 11.335938 17.238281 11.335938 17.28125 C 11.320312 17.285156 11.308594 17.289062 11.292969 17.292969 C 11.234375 17.15625 11.160156 17.023438 11.113281 16.882812 C 10.949219 16.359375 10.773438 15.839844 10.636719 15.3125 C 10.492188 14.738281 10.375 14.15625 10.273438 13.574219 C 10.1875 13.070312 10.195312 12.554688 10.253906 12.042969 C 10.386719 10.847656 10.714844 9.691406 10.972656 8.523438 C 11.011719 8.34375 11.011719 8.1875 10.941406 8.023438 C 10.832031 7.75 10.753906 7.464844 10.628906 7.199219 C 10.402344 6.726562 10.046875 6.644531 9.621094 6.945312 C 9.542969 7 9.464844 7.058594 9.386719 7.109375 C 9.332031 7.144531 9.273438 7.171875 9.1875 7.214844 C 9.207031 7.152344 9.207031 7.113281 9.226562 7.089844 C 9.605469 6.574219 10.027344 6.105469 10.613281 5.824219 C 10.882812 5.691406 11.160156 5.695312 11.4375 5.804688 C 11.621094 5.875 11.777344 5.839844 11.957031 5.75 C 12.140625 5.65625 12.351562 5.601562 12.558594 5.585938 C 12.894531 5.5625 13.238281 5.578125 13.597656 5.578125 C 13.355469 5.671875 13.128906 5.746094 12.914062 5.847656 C 12.695312 5.953125 12.492188 6.074219 12.335938 6.273438 C 12.214844 6.429688 12.1875 6.59375 12.269531 6.769531 C 12.40625 7.066406 12.539062 7.363281 12.691406 7.652344 C 12.960938 8.160156 13.230469 8.671875 13.519531 9.167969 C 13.984375 9.964844 14.441406 10.769531 14.945312 11.535156 C 15.265625 12.023438 15.671875 12.449219 16.039062 12.902344 C 16.042969 12.90625 16.050781 12.910156 16.082031 12.925781 C 16.226562 12.703125 16.390625 12.492188 16.507812 12.253906 C 17.070312 11.140625 17.621094 10.023438 18.164062 8.902344 C 18.378906 8.453125 18.582031 7.996094 18.769531 7.535156 C 18.859375 7.320312 18.917969 7.085938 18.953125 6.855469 C 18.988281 6.644531 18.855469 6.472656 18.722656 6.316406 C 18.460938 6.003906 18.109375 5.8125 17.761719 5.621094 C 17.734375 5.605469 17.710938 5.59375 17.6875 5.578125 C 17.679688 5.574219 17.675781 5.566406 17.667969 5.558594 Z M 17.667969 5.558594 "/>
</g>
</svg>
