<?xml version="1.0" encoding="UTF-8"?>
<svg xmlns="http://www.w3.org/2000/svg" xmlns:xlink="http://www.w3.org/1999/xlink" width="43px" height="24px" viewBox="0 0 42 24" version="1.1">
<g id="surface1">
<path style=" stroke:none;fill-rule:nonzero;fill:rgb(100%,100%,100%);fill-opacity:1;" d="M 10.621094 13.667969 C 10.640625 13.667969 10.664062 13.671875 10.683594 13.6875 C 10.6875 13.691406 10.695312 13.6875 10.699219 13.6875 C 10.710938 13.683594 10.71875 13.675781 10.726562 13.675781 C 10.746094 13.671875 10.761719 13.679688 10.777344 13.691406 C 10.792969 13.707031 10.800781 13.726562 10.804688 13.75 C 10.804688 13.75 10.804688 13.753906 10.808594 13.757812 C 10.800781 13.75 10.792969 13.742188 10.785156 13.734375 C 10.777344 13.726562 10.769531 13.71875 10.757812 13.714844 C 10.746094 13.710938 10.738281 13.714844 10.734375 13.730469 C 10.726562 13.757812 10.722656 13.785156 10.730469 13.816406 C 10.742188 13.84375 10.746094 13.875 10.753906 13.902344 C 10.757812 13.921875 10.757812 13.941406 10.757812 13.957031 C 10.761719 13.972656 10.761719 13.984375 10.761719 14 C 10.757812 14.027344 10.757812 14.050781 10.753906 14.078125 C 10.75 14.105469 10.742188 14.136719 10.738281 14.164062 C 10.734375 14.175781 10.730469 14.183594 10.730469 14.195312 C 10.730469 14.195312 10.726562 14.199219 10.726562 14.199219 C 10.726562 14.195312 10.726562 14.191406 10.726562 14.183594 C 10.730469 14.164062 10.730469 14.140625 10.730469 14.121094 C 10.730469 14.101562 10.730469 14.082031 10.730469 14.0625 C 10.730469 14.027344 10.730469 13.992188 10.71875 13.960938 C 10.710938 13.929688 10.703125 13.894531 10.691406 13.863281 C 10.6875 13.863281 10.6875 13.859375 10.683594 13.855469 C 10.683594 13.851562 10.679688 13.851562 10.679688 13.855469 C 10.671875 13.863281 10.667969 13.871094 10.664062 13.882812 C 10.640625 13.929688 10.617188 13.984375 10.597656 14.035156 C 10.589844 14.058594 10.585938 14.078125 10.585938 14.101562 C 10.585938 14.121094 10.585938 14.140625 10.585938 14.164062 C 10.585938 14.164062 10.585938 14.167969 10.585938 14.171875 C 10.585938 14.171875 10.582031 14.171875 10.582031 14.171875 C 10.578125 14.164062 10.574219 14.160156 10.574219 14.152344 C 10.550781 14.117188 10.53125 14.078125 10.507812 14.042969 C 10.480469 13.992188 10.453125 13.945312 10.425781 13.894531 C 10.417969 13.882812 10.410156 13.867188 10.402344 13.855469 C 10.402344 13.855469 10.398438 13.851562 10.398438 13.851562 C 10.390625 13.863281 10.382812 13.875 10.375 13.890625 C 10.367188 13.917969 10.359375 13.945312 10.355469 13.976562 C 10.351562 14.007812 10.351562 14.039062 10.351562 14.074219 C 10.351562 14.109375 10.355469 14.140625 10.363281 14.175781 C 10.363281 14.179688 10.363281 14.1875 10.363281 14.191406 C 10.363281 14.191406 10.363281 14.195312 10.363281 14.195312 C 10.363281 14.199219 10.363281 14.199219 10.363281 14.199219 C 10.359375 14.191406 10.355469 14.183594 10.355469 14.179688 C 10.347656 14.15625 10.339844 14.132812 10.335938 14.109375 C 10.332031 14.082031 10.324219 14.054688 10.320312 14.03125 C 10.316406 14.007812 10.316406 13.984375 10.320312 13.960938 C 10.324219 13.90625 10.339844 13.855469 10.351562 13.800781 C 10.351562 13.792969 10.351562 13.785156 10.347656 13.777344 C 10.34375 13.765625 10.339844 13.753906 10.335938 13.742188 C 10.328125 13.71875 10.3125 13.714844 10.296875 13.730469 C 10.292969 13.730469 10.289062 13.734375 10.285156 13.738281 C 10.285156 13.738281 10.28125 13.738281 10.277344 13.742188 C 10.277344 13.738281 10.277344 13.738281 10.277344 13.734375 C 10.292969 13.710938 10.3125 13.691406 10.335938 13.679688 C 10.347656 13.671875 10.355469 13.671875 10.367188 13.679688 C 10.375 13.679688 10.382812 13.679688 10.390625 13.675781 C 10.394531 13.671875 10.40625 13.667969 10.414062 13.667969 C 10.425781 13.667969 10.441406 13.667969 10.453125 13.667969 C 10.445312 13.671875 10.4375 13.675781 10.425781 13.679688 C 10.417969 13.683594 10.410156 13.691406 10.402344 13.699219 C 10.398438 13.707031 10.398438 13.714844 10.402344 13.722656 C 10.40625 13.734375 10.414062 13.75 10.417969 13.761719 C 10.429688 13.785156 10.441406 13.808594 10.453125 13.832031 C 10.46875 13.867188 10.488281 13.902344 10.507812 13.9375 C 10.523438 13.960938 10.539062 13.980469 10.554688 14 C 10.5625 13.988281 10.566406 13.980469 10.570312 13.96875 C 10.59375 13.917969 10.617188 13.867188 10.640625 13.820312 C 10.648438 13.796875 10.65625 13.777344 10.664062 13.757812 C 10.667969 13.746094 10.667969 13.734375 10.671875 13.726562 C 10.671875 13.714844 10.667969 13.707031 10.660156 13.703125 C 10.652344 13.6875 10.636719 13.679688 10.621094 13.671875 C 10.621094 13.667969 10.621094 13.667969 10.621094 13.667969 Z M 10.621094 13.667969 "/>
</g>
</svg>
