<?xml version="1.0" encoding="utf-8"?>
<!-- Generator: Adobe Illustrator 25.0.1, SVG Export Plug-In . SVG Version: 6.00 Build 0)  -->
<svg version="1.1" id="Layer_1" xmlns="http://www.w3.org/2000/svg" xmlns:xlink="http://www.w3.org/1999/xlink" x="0px" y="0px"
	 viewBox="0 0 1920 1080" style="enable-background:new 0 0 1920 1080;" xml:space="preserve">
<g>
	<path d="M807.69,250.09c25.11,2.65,49.84,5.75,71.9,18.89c7.03,4.19,13.7,3.43,20.87,0.4c9.1-3.84,18.19-8.46,27.75-10.34
		c22.29-4.38,41.86,2.71,59.02,17.21c17.19,14.52,25.16,34.13,30.8,55.07c0.6,2.22,1.26,4.43,2.19,7.7
		c-8.63-7.75-16.35-14.92-24.32-21.81c-9.59-8.28-19.73-15.69-32.45-18.58c-12.82-2.91-21.7,1.38-25.93,13.88
		c-9.53,28.14-11.45,56.22-1.91,85.26c9.53,29.02,17.68,58.59,24.51,88.35c4.05,17.63,4.85,36.08,6.24,54.22
		c1.02,13.41,1.57,26.99,0.68,40.38c-1.76,26.29-3.43,52.7-7.43,78.7c-4.46,28.93-11.17,57.53-17.55,86.14
		c-2.29,10.29-6.4,20.17-9.79,30.2c-0.55,1.62-1.67,3.05-2.53,4.57c-0.55-0.12-1.1-0.23-1.65-0.35c0.43-4.91,0.38-9.92,1.36-14.72
		c4.26-20.92,5.23-42.13,5.63-63.35c0.36-19.15,0.5-38.35-0.36-57.47c-1.56-34.43-2.5-69.01-12.6-102.42
		c-9.78-32.33-19.82-64.57-34.8-95c-1.61-3.26-3.6-6.35-5.63-9.37c-2.58-3.84-4.71-4.03-7.15-0.21
		c-5.33,8.38-10.65,16.81-15.38,25.54c-27.31,50.45-52.74,101.82-75.19,154.65c-8.7,20.47-14.47,41.63-14.9,63.93
		c-0.4,20.92-0.06,41.84-0.12,62.77c-0.01,2.26-0.56,4.51-0.87,6.77c-0.44,0.21-0.89,0.43-1.33,0.64
		c-4.26-5.98-8.73-11.81-12.73-17.96c-24.12-36.98-48.02-74.11-72.21-111.05c-31.85-48.64-63.9-97.14-95.86-145.71
		c-8.67-13.17-17.3-26.37-25.96-39.54c-0.99-1.51-2.08-2.97-3.39-4.84c-9.81,13.05-19.21,25.84-25.33,40.72
		c-11.04,26.83-17.04,54.93-21.29,83.5c-4.83,32.45-6.7,65.08-6.21,97.83c0.51,34.06,4.02,67.83,11.67,101.1
		c1.22,5.33,1.94,10.78,2.73,16.19c0.27,1.86,0.04,3.79,0.04,5.69c-0.64,0.18-1.27,0.36-1.91,0.55c-2.78-6.16-6.16-12.13-8.23-18.53
		c-7.57-23.45-15.63-46.81-21.76-70.65c-6.63-25.78-12.05-51.93-16.63-78.16c-3.97-22.8-3.65-45.94-1.01-69
		c6.14-53.8,21.15-105.76,32.99-158.36c1.8-7.98,1.69-15.02-1.42-22.54c-5.06-12.21-8.59-25.12-14.36-36.96
		c-10.42-21.36-26.59-24.96-46.13-11.46c-3.55,2.46-7.02,5.04-10.67,7.35c-2.45,1.56-5.14,2.75-9.12,4.84
		c0.88-2.9,0.97-4.6,1.81-5.72c17.33-23.22,36.7-44.24,63.41-56.97c12.35-5.88,25.01-5.81,37.71-0.92
		c8.31,3.2,15.55,1.59,23.67-2.42c8.38-4.14,18.16-6.63,27.51-7.33c15.45-1.16,31.05-0.32,47.46-0.32c-11,4.2-21.42,7.49-31.22,12.1
		c-9.87,4.64-19.3,10.15-26.37,19.11c-5.61,7.1-6.82,14.37-3.12,22.29c6.25,13.37,12.47,26.78,19.43,39.78
		c12.27,22.93,24.57,45.87,37.8,68.24c21.2,35.85,42.06,71.99,65.22,106.57c14.63,21.84,33.17,41.06,49.96,61.44
		c0.18,0.22,0.55,0.29,1.98,1c6.51-9.93,14.09-19.49,19.52-30.13c25.55-50.09,50.73-100.38,75.57-150.83
		c9.95-20.2,19.18-40.8,27.81-61.6c4.02-9.68,6.76-20.14,8.38-30.51c1.5-9.61-4.49-17.34-10.53-24.32
		c-12.11-13.99-28.03-22.69-44.03-31.26c-1.16-0.62-2.3-1.29-3.43-1.97C808.26,250.85,808.11,250.56,807.69,250.09z"/>
</g>
</svg>
